# xmcd
#
# Track frame offsets:
#	150
#	10962
#	30608
#	43107
#	64452
#	75971
#	87807
#	100414
#	114438
#	123584
#	134906
#	146279
#	156109
#	171192
#	181618
#	194665
#	208464
#	222881
#	236100
#	247111
#
# Disc length: 3408 seconds
#
# Revision: 1
# Processed by: cddbd v1.5.2PL0 Copyright (c) Steve Scherf et al.
# Submitted via: audiograbber 1.82.02
#
DISCID=280d4e14
DTITLE=Various Artist - Country Roads Vol 5
DYEAR=1999
DGENRE=Country
TTITLE0=He'll Have To Go - Jim Reeves
TTITLE1=El Paso - Marty Robbins
TTITLE2=500 Miles Away From Home - Bobby Bare
TTITLE3=Poems, Prayers And Promises - John Denver
TTITLE4=The Battle Of New Orleans - Johnny Horton
TTITLE5=Today, Tomorrow And Forever - Patsy Cline
TTITLE6=The Other Woman - Sammy -Texas - Johnson
TTITLE7=I'll Never Love Like This Way Again - Billie Jo Spears
TTITLE8=Rawhide - Frankie Laine
TTITLE9=Young Love - Sonny James
TTITLE10=Sea Of Heartbreak - Don Gibson
TTITLE11=Sweet Dreams - Faron Young
TTITLE12=Highway Calling - SAMmy's Saloon
TTITLE13=Hello Mary Lou - Ricky Nelson
TTITLE14=Misty - Ray Stevens
TTITLE15=Walk Right Back - The Everly Brothers
TTITLE16=If I Said You Had A Beautiful Body, Would You Hold Against Me - Bellam
TTITLE16=y Brothers
TTITLE17=Top Of The World - Lynn Anderson
TTITLE18=Tender Years - George Jones
TTITLE19=England Swing - Roger Miller
EXTD=
EXTT0=
EXTT1=
EXTT2=
EXTT3=
EXTT4=
EXTT5=
EXTT6=
EXTT7=
EXTT8=
EXTT9=
EXTT10=
EXTT11=
EXTT12=
EXTT13=
EXTT14=
EXTT15=
EXTT16=
EXTT17=
EXTT18=
EXTT19=
PLAYORDER=
